<svg xmlns="http://www.w3.org/2000/svg" viewBox="0 0 1600 1000" width="1600" height="1000" role="img" aria-label="The Langtang valley with glaciated peaks at its head and stone-walled fields on the valley floor"><rect width="1600" height="1000" fill="#F7F4EC"/><circle cx="884.77" cy="580" r="210" fill="#FDB614"/><g transform="translate(0 400)"><path d="M0 600L0 287.76L34.04 244.1L68.09 222.65L102.13 200.8L136.17 178.77L170.21 178.27L204.26 192.91L238.3 158.87L272.34 190.47L306.38 223.26L340.43 215.86L374.47 192.27L408.51 168.54L442.55 150L476.6 150L510.64 159.52L544.68 181.26L578.72 203.25L612.77 208.48L646.81 174.75L680.85 195.76L714.89 230.04L748.94 264L782.98 245.75L817.02 214.02L851.06 184.31L885.11 210.74L919.15 243.3L953.19 249.22L987.23 221.09L1021.28 192.93L1055.32 164.75L1089.36 167.76L1123.4 197.17L1157.45 225.97L1191.49 233.31L1225.53 204.68L1259.57 203.31L1293.62 231.79L1327.66 259.79L1361.7 287.28L1395.74 272.48L1429.79 254.27L1463.83 236.3L1497.87 218.46L1531.91 199.93L1565.96 184L1600 266.23L1600 600Z" fill="#C6D6E3"/></g><g transform="translate(0 400)"><path d="M0 600L0 343.73L34.04 287.35L68.09 261.24L102.13 235.11L136.17 211.82L170.21 239.59L204.26 266.76L238.3 292.02L272.34 273.79L306.38 248.71L340.43 224.98L374.47 201.03L408.51 176.43L442.55 150.14L476.6 136.8L510.64 150.12L544.68 172.98L578.72 196L612.77 213.16L646.81 185.1L680.85 156.71L714.89 176.77L748.94 203.59L782.98 230.4L817.02 257.49L851.06 284.71L885.11 301.67L919.15 272.86L953.19 244.39L987.23 216.06L1021.28 215.87L1055.32 246.41L1089.36 276.28L1123.4 301.5L1157.45 266.13L1191.49 229.94L1225.53 194.98L1259.57 160.66L1293.62 147.47L1327.66 183.52L1361.7 219.06L1395.74 254.17L1429.79 254.08L1463.83 221.9L1497.87 189.9L1531.91 216.84L1565.96 251.02L1600 333.55L1600 600Z" fill="#A2BAD0"/></g><g transform="translate(0 400)"><path d="M0 600L0 409.72L34.04 358.09L68.09 324.97L102.13 291.4L136.17 255.51L170.21 218.94L204.26 181.51L238.3 209.87L272.34 242.77L306.38 276.24L340.43 261.7L374.47 231.82L408.51 255.12L442.55 281.57L476.6 308.22L510.64 335.42L544.68 332.85L578.72 300.44L612.77 267.63L646.81 234.09L680.85 200.25L714.89 166.06L748.94 131.51L782.98 126L817.02 126L851.06 152.92L885.11 188.38L919.15 222.61L953.19 255.94L987.23 264.45L1021.28 244.07L1055.32 224.44L1089.36 205.06L1123.4 215.31L1157.45 237.99L1191.49 260.43L1225.53 282.68L1259.57 274.62L1293.62 243.4L1327.66 210.75L1361.7 209.16L1395.74 241.45L1429.79 275.52L1463.83 309.08L1497.87 341.68L1531.91 372.07L1565.96 401.45L1600 420L1600 600Z" fill="#7797B5"/></g><g transform="translate(0 320)"><path d="M0 680L0 547.53L27.12 381.27L54.24 349.48L81.36 317.55L108.47 286.13L135.59 256.13L162.71 226.18L189.83 196.29L216.95 164.22L244.07 130.65L271.19 96.85L298.31 62.82L325.42 33.51L352.54 31L379.66 31L406.78 31L433.9 32.13L461.02 61.34L488.14 90.64L515.25 121.47L542.37 153.37L569.49 185.2L596.61 216.97L623.73 244.35L650.85 265.48L677.97 228.96L705.08 193.44L732.2 162.06L759.32 131.21L786.44 100.84L813.56 67.88L840.68 31.97L867.8 38.11L894.92 68.2L922.03 99.78L949.15 131.96L976.27 164.55L1003.39 197.82L1030.51 233.3L1057.63 269.06L1084.75 279.52L1111.86 255.06L1138.98 228.63L1166.1 202.13L1193.22 175.57L1220.34 172.25L1247.46 199.62L1274.58 226.86L1301.69 253.84L1328.81 278.67L1355.93 303.55L1383.05 328.51L1410.17 354.9L1437.29 383.38L1464.41 411.53L1491.53 439.35L1518.64 464.8L1545.76 489.44L1572.88 514.34L1600 591.85L1600 680Z" fill="#003047"/></g><g transform="translate(0 320)"><path d="M840.68 31.97L867.8 38.11L894.92 68.2L922.03 99.78L949.15 131.96L976.27 164.55L1003.39 197.82L1030.51 233.3L1057.63 269.06L1084.75 279.52L1084.75 620L840.68 620Z" fill="#00212F" opacity="0.6"/><path d="M1220.34 172.25L1247.46 199.62L1274.58 226.86L1301.69 253.84L1328.81 278.67L1355.93 303.55L1383.05 328.51L1410.17 354.9L1437.29 383.38L1464.41 411.53L1491.53 439.35L1518.64 464.8L1545.76 489.44L1572.88 514.34L1600 591.85L1600 620L1220.34 620Z" fill="#00212F" opacity="0.6"/><path d="M189.83 196.29L216.95 164.22L244.07 130.65L271.19 96.85L298.31 62.82L325.42 33.51L352.54 31L379.66 31L406.78 31L433.9 32.13L461.02 61.34L488.14 90.64L515.25 121.47L542.37 153.37L569.49 185.2L433.9 114.15L298.31 145.15L189.83 196.29Z" fill="#F4F7FA"/><path d="M705.08 193.44L732.2 162.06L759.32 131.21L786.44 100.84L813.56 67.88L840.68 31.97L867.8 38.11L894.92 68.2L922.03 99.78L949.15 131.96L976.27 164.55L1003.39 197.82L922.03 134.04L840.68 128.31L759.32 158.57L705.08 193.44Z" fill="#F4F7FA"/><path d="M1166.1 202.13L1193.22 175.57L1220.34 172.25L1247.46 199.62L1193.22 188.19L1166.1 202.13Z" fill="#F4F7FA"/><path d="M271.19 96.85L298.31 62.82L325.42 33.51L352.54 31L379.66 31L406.78 31L433.9 32.13L461.02 61.34L488.14 90.64L433.9 80.34L379.66 144.33L325.42 149.29L271.19 96.85Z" fill="#FFFFFF"/><path d="M786.44 100.84L813.56 67.88L840.68 31.97L867.8 38.11L894.92 68.2L922.03 99.78L867.8 71.77L813.56 123.22L786.44 100.84Z" fill="#FFFFFF"/></g><path d="M864 40Q1248 190 1632 240" fill="none" stroke="#003047" stroke-width="1.5" opacity="0.8"/><g transform="translate(924.63 63.06) rotate(20.28)"><rect width="27.2" height="35.9" fill="#2E6FA8" stroke="#003047" stroke-width="0.7" stroke-opacity="0.5"/></g><g transform="translate(1025.68 98.73) rotate(18.54)"><rect width="27.2" height="35.9" fill="#F4F1E8" stroke="#003047" stroke-width="0.7" stroke-opacity="0.5"/></g><g transform="translate(1126.74 130.93) rotate(16.75)"><rect width="27.2" height="35.9" fill="#C0392B" stroke="#003047" stroke-width="0.7" stroke-opacity="0.5"/></g><g transform="translate(1227.79 159.67) rotate(14.94)"><rect width="27.2" height="35.9" fill="#2F7D4F" stroke="#003047" stroke-width="0.7" stroke-opacity="0.5"/></g><g transform="translate(1328.84 184.94) rotate(13.09)"><rect width="27.2" height="35.9" fill="#FDB614" stroke="#003047" stroke-width="0.7" stroke-opacity="0.5"/></g><g transform="translate(1429.89 206.76) rotate(11.21)"><rect width="27.2" height="35.9" fill="#2E6FA8" stroke="#003047" stroke-width="0.7" stroke-opacity="0.5"/></g><g transform="translate(1530.95 225.11) rotate(9.31)"><rect width="27.2" height="35.9" fill="#F4F1E8" stroke="#003047" stroke-width="0.7" stroke-opacity="0.5"/></g></svg>